<svg width="96" height="90" viewBox="0 0 96 90" fill="none" xmlns="http://www.w3.org/2000/svg">
<path d="M6.3 41.46C10.38 40.7 12.42 38.6 12.42 35.16C12.42 33.64 12.22 31.04 11.82 27.36C11.42 23.44 11.22 20.6 11.22 18.84C11.22 15.96 12.02 13.76 13.62 12.24C15.26 10.72 17.44 9.96 20.16 9.96H23.64V14.7H21.18C19.62 14.7 18.46 15.06 17.7 15.78C16.94 16.46 16.56 17.6 16.56 19.2C16.56 20.36 16.64 21.8 16.8 23.52C16.96 25.2 17.06 26.34 17.1 26.94C17.5 30.78 17.7 33.58 17.7 35.34C17.7 37.46 17.16 39.24 16.08 40.68C15.04 42.08 13.42 43.02 11.22 43.5V43.62C13.42 44.1 15.04 45.06 16.08 46.5C17.16 47.94 17.7 49.72 17.7 51.84C17.7 53.6 17.5 56.4 17.1 60.24C17.06 60.84 16.96 62 16.8 63.72C16.64 65.4 16.56 66.82 16.56 67.98C16.56 69.58 16.94 70.72 17.7 71.4C18.46 72.12 19.62 72.48 21.18 72.48H23.64V77.22H20.16C17.44 77.22 15.26 76.46 13.62 74.94C12.02 73.42 11.22 71.22 11.22 68.34C11.22 66.58 11.42 63.74 11.82 59.82C12.22 56.14 12.42 53.54 12.42 52.02C12.42 48.58 10.38 46.48 6.3 45.72V41.46ZM49.1348 45.72C45.0548 46.48 43.0148 48.58 43.0148 52.02C43.0148 53.54 43.2148 56.14 43.6148 59.82C44.0148 63.74 44.2148 66.58 44.2148 68.34C44.2148 71.22 43.3948 73.42 41.7548 74.94C40.1548 76.46 37.9948 77.22 35.2748 77.22H31.7948V72.48H34.2548C35.8148 72.48 36.9748 72.12 37.7348 71.4C38.4948 70.72 38.8748 69.58 38.8748 67.98C38.8748 66.82 38.7948 65.4 38.6348 63.72C38.4748 62 38.3748 60.84 38.3348 60.24C37.9348 56.4 37.7348 53.6 37.7348 51.84C37.7348 49.72 38.2548 47.94 39.2948 46.5C40.3748 45.06 42.0148 44.1 44.2148 43.62V43.5C42.0148 43.02 40.3748 42.08 39.2948 40.68C38.2548 39.24 37.7348 37.46 37.7348 35.34C37.7348 33.58 37.9348 30.78 38.3348 26.94C38.3748 26.34 38.4748 25.2 38.6348 23.52C38.7948 21.8 38.8748 20.36 38.8748 19.2C38.8748 17.6 38.4948 16.46 37.7348 15.78C36.9748 15.06 35.8148 14.7 34.2548 14.7H31.7948V9.96H35.2748C37.9948 9.96 40.1548 10.72 41.7548 12.24C43.3948 13.76 44.2148 15.96 44.2148 18.84C44.2148 20.6 44.0148 23.44 43.6148 27.36C43.2148 31.04 43.0148 33.64 43.0148 35.16C43.0148 38.6 45.0548 40.7 49.1348 41.46V45.72Z" fill="#808080"/>
<path d="M65.14 55.04L61.72 66H59.84L57.2 57.3L54.56 66H52.68L49.24 55.04H51.1L53.62 64.24L56.34 55.04H58.2L60.86 64.26L63.34 55.04H65.14ZM76.9463 60.1C76.9463 60.4467 76.9263 60.8133 76.8863 61.2H68.1263C68.1929 62.28 68.5596 63.1267 69.2263 63.74C69.9063 64.34 70.7263 64.64 71.6863 64.64C72.4729 64.64 73.1263 64.46 73.6463 64.1C74.1796 63.7267 74.5529 63.2333 74.7663 62.62H76.7263C76.4329 63.6733 75.8463 64.5333 74.9663 65.2C74.0863 65.8533 72.9929 66.18 71.6863 66.18C70.6463 66.18 69.7129 65.9467 68.8863 65.48C68.0729 65.0133 67.4329 64.3533 66.9663 63.5C66.4996 62.6333 66.2663 61.6333 66.2663 60.5C66.2663 59.3667 66.4929 58.3733 66.9463 57.52C67.3996 56.6667 68.0329 56.0133 68.8463 55.56C69.6729 55.0933 70.6196 54.86 71.6863 54.86C72.7263 54.86 73.6463 55.0867 74.4463 55.54C75.2463 55.9933 75.8596 56.62 76.2863 57.42C76.7263 58.2067 76.9463 59.1 76.9463 60.1ZM75.0663 59.72C75.0663 59.0267 74.9129 58.4333 74.6063 57.94C74.2996 57.4333 73.8796 57.0533 73.3463 56.8C72.8263 56.5333 72.2463 56.4 71.6063 56.4C70.6863 56.4 69.8996 56.6933 69.2463 57.28C68.6063 57.8667 68.2396 58.68 68.1463 59.72H75.0663ZM84.6886 54.84C86.0219 54.84 87.1019 55.2467 87.9286 56.06C88.7553 56.86 89.1686 58.02 89.1686 59.54V66H87.3686V59.8C87.3686 58.7067 87.0953 57.8733 86.5486 57.3C86.0019 56.7133 85.2553 56.42 84.3086 56.42C83.3486 56.42 82.5819 56.72 82.0086 57.32C81.4486 57.92 81.1686 58.7933 81.1686 59.94V66H79.3486V55.04H81.1686V56.6C81.5286 56.04 82.0153 55.6067 82.6286 55.3C83.2553 54.9933 83.9419 54.84 84.6886 54.84Z" fill="#808080"/>
</svg>
